<svg width="4096" height="1149" viewBox="0 0 4096 1149" fill="none" xmlns="http://www.w3.org/2000/svg">
<g clip-path="url(#clip0_1664_222)">
<path d="M-1033.9 1120.04L-1075.96 1115.55C-1026.52 1016.61 -797.994 969.044 -605.629 980.197C-531.05 985.526 -457.66 993.721 -385.998 1004.72C-285.82 1018.7 -191.157 1031.94 -90.3538 1030.5C114.421 1027.54 305.647 963.474 490.543 901.552C679.306 838.401 874.385 772.874 1089.38 768.784C1244.9 765.537 1388.24 795.312 1526.93 824.005C1577.88 834.569 1630.61 845.501 1682.79 854.519C1771.21 869.659 2071.08 911.398 2247.25 810.785C2320.72 768.854 2352.48 713.458 2386.02 654.833C2419.56 596.208 2454.39 535.384 2535.16 489.075C2697.63 395.634 2974.89 404.685 3164.7 461.795C3270.42 493.605 3361.4 537.247 3449.34 579.476C3515.26 612.523 3584.99 643.305 3658.17 671.664C3809.29 727.629 4052.12 768.888 4238.94 702.373C4392.85 647.695 4443.91 550.134 4497.48 446.942C4521.97 400.108 4547.24 351.637 4583.16 307.434C4669.68 200.654 4843.5 110.496 5059.93 60.1027C5276.36 9.70931 5508.19 5.33721 5695.64 48.2602L5676.14 70.158C5498.68 29.6544 5280.08 33.8384 5075 81.9137C4869.92 129.989 4704.99 214.968 4623.26 315.747C4588.78 358.333 4563.89 405.898 4539.79 451.942C4485.8 555.336 4430.02 662.017 4260.76 721.841C4055.61 794.681 3801.31 753.801 3631.86 691.309C3557.29 662.52 3486.21 631.266 3419.01 597.706C3332.64 556.211 3243.24 513.36 3141.31 482.683C2966.09 429.904 2712.11 420.486 2565.73 504.727C2492.8 546.685 2461.14 601.899 2427.7 660.224C2394.25 718.549 2359.02 779.985 2277.82 826.379C2146.22 901.498 1917.76 920.469 1666.61 877.106C1613.32 867.917 1560.15 856.835 1508.64 846.185C1373.83 818.267 1234.59 789.429 1087.7 792.404C884.633 796.442 694.91 860.004 511.408 921.431C321.146 985.142 124.336 1051.01 -92.578 1054.09C-199.283 1055.65 -301.227 1041.42 -399.86 1027.64C-469.623 1016.93 -541.063 1008.94 -613.657 1003.72C-786.589 993.664 -991.114 1034.4 -1033.9 1120.04Z" fill="#F4F2F7"/>
<path d="M-1017.42 1113.7L-1059.29 1108.68C-1004.62 1007.54 -771.337 960.874 -577.311 974.228C-502.922 980.292 -429.844 989.275 -358.636 1001.11C-257.724 1016.4 -162.443 1030.84 -60.0928 1029.66C142.86 1027.34 332.594 963.953 516.11 902.761C699.626 841.569 889.152 778.372 1097.24 772.271C1251.16 767.822 1392.55 794.233 1529.31 819.856C1579.21 829.185 1630.76 838.829 1681.89 846.73C1768.36 860.159 2064.39 896.227 2242.45 798.038C2317.38 756.729 2353.74 701.475 2388.9 647.943C2425.66 592.017 2463.73 534.245 2545.97 490.561C2715.74 400.346 2993.82 415.776 3179.86 468.39C3286.24 498.452 3377.54 540.13 3465.7 580.4C3531.2 611.545 3600.24 640.495 3672.46 667.11C3832.2 722.568 4068.67 760.074 4252.76 697.316C4406.69 644.818 4460.1 550.066 4516.68 449.762C4541.95 404.947 4568.12 358.663 4604.03 316.17C4692.72 211.031 4867.17 122.133 5082.09 72.241C5291.2 23.7522 5513.46 18.5277 5691.83 57.9162L5673.21 79.8803C5505.24 42.5918 5295.24 47.862 5097.04 93.8234C4892.69 141.208 4727.37 225.324 4643.59 324.574C4609.01 365.574 4583.02 411.081 4558.47 455.029C4501.89 555.45 4443.21 659.296 4274.05 716.992C4072.05 785.874 3817.64 746.769 3646.94 687.239C3573.47 660.205 3503.28 630.77 3436.7 599.083C3350.12 559.545 3260.51 518.653 3157.92 489.665C2979.88 439.292 2722.69 429.12 2575.82 506.964C2501.54 546.348 2466.98 598.843 2430.42 654.463C2393.86 710.082 2355.38 768.467 2272.93 813.933C2140.44 886.923 1914.17 907.71 1667.58 869.502C1615.35 861.43 1563.24 851.642 1512.79 842.227C1380.01 817.313 1242.27 791.63 1096.78 795.939C900.147 801.602 715.776 863.139 537.414 922.673C348.532 985.654 153.211 1050.78 -61.9826 1053.35C-170.675 1054.61 -273.464 1039.02 -372.832 1023.93C-442.152 1012.38 -513.32 1003.64 -585.775 997.776C-760.689 985.656 -969.736 1025.77 -1017.42 1113.7Z" fill="#EEECF2"/>
<path d="M23.085 1050.41C4.87426 1051.49 -13.5786 1052.16 -32.0626 1052.3C-143.062 1053.4 -246.923 1036.34 -347.467 1019.85C-415.883 1007.57 -486.256 998.087 -558.023 991.488C-730.934 978.071 -949.264 1018.49 -1000.52 1107.11L-1042.09 1101.65C-982.489 998.694 -744.452 952.867 -548.676 968.064C-474.813 974.841 -402.378 984.572 -331.949 997.181C-230.078 1013.89 -133.842 1029.69 -29.5116 1028.69C171.717 1026.82 360.092 964.518 542.208 903.703C720.263 844.541 904.539 783.245 1105.54 775.615C1257.73 769.734 1397.18 792.958 1532.11 815.388C1580.95 823.482 1631.56 831.885 1681.53 838.734C1766.58 850.359 2058.12 880.796 2237.96 785.037C2314.36 744.408 2353.85 692.036 2391.9 641.399C2432 588.166 2473.08 533.165 2557.44 492.185C2727.65 409.373 3007.18 425.248 3195.36 475.025C3301.84 503.194 3392.68 542.6 3480.6 580.762C3545.86 610.26 3614.51 637.561 3686.2 662.529C3847.01 715.861 4083.72 751.643 4266.12 692.049C4420.19 641.726 4476.6 549.685 4535.32 452.204C4559.8 408.873 4589.42 366.247 4624 324.605C4712.31 224.205 4881.34 137.984 5087.72 87.945C5294.11 37.9063 5513.16 30.2764 5687.78 67.2326L5669.28 89.3666C5325.8 16.7657 4837.41 135.319 4663.15 333.387C4629.44 374.227 4600.57 416.02 4576.72 458.495C4516.82 556.341 4456 657.071 4286.47 712.43C4086.89 777.691 3832.68 740.166 3661.05 683.344C3587.89 657.966 3517.89 630.152 3451.42 600.045C3365.19 562.668 3276.03 523.989 3173.44 496.888C2997.82 450.381 2738.76 434.6 2584.84 509.676C2508.99 546.558 2471.55 596.452 2431.76 649.255C2391.97 702.058 2350.57 757.254 2266.96 801.726C2133.69 872.581 1909.6 895.186 1667.37 862.145C1616.29 855.126 1565.35 846.683 1516.07 838.438C1378.71 815.621 1249.09 794 1104.87 799.589C914.795 806.931 735.772 866.385 562.439 923.972C391.678 980.642 214.679 1039.15 23.085 1050.41Z" fill="#E9E5EE"/>
<path d="M55.4389 1049.81C36.4648 1050.92 17.4629 1051.57 -1.78791 1051.7C-114.778 1052.45 -219.485 1034.02 -321.203 1016.18C-389.202 1004.2 -459.413 991.822 -530.901 985.648C-705.446 970.5 -928.523 1010.2 -984.478 1100.74L-1025.75 1094.85C-961.118 989.951 -718.218 944.958 -520.794 962.122C-446.335 968.592 -374.573 981.293 -305.139 993.482C-202.528 1011.62 -106.092 1028.94 0.31679 1027.94C199.821 1026.52 386.799 964.657 567.549 904.807C740.351 847.486 918.852 788.475 1112.97 779.128C1263.55 771.927 1401.16 791.664 1534.27 811.252C1581.95 818.176 1631.17 825.305 1680.21 831.089C1787.41 843.651 2055.99 863.176 2232.73 772.375C2310.37 732.439 2352.76 682.786 2393.73 635.278C2437.15 584.679 2482 532.345 2568.05 493.979C2738.67 418.099 3013.12 433.211 3210.09 481.823C3316.8 508.21 3407.73 545.488 3495.53 581.535C3560.49 609.221 3628.63 634.741 3699.61 657.967C3861.7 708.807 4098.53 743.108 4279.06 686.808C4433.24 638.6 4491.79 549.323 4553.74 454.776C4579.12 413.476 4609.15 372.883 4643.66 333.235C4732.71 236.034 4899.32 151.723 5100.58 101.868C5301.83 52.0135 5514.77 42.7386 5682.98 76.7703L5665.73 99.7149C5336.5 33.1149 4859.04 151.38 4683.09 343.121C4649.53 381.862 4620.25 421.503 4595.41 461.818C4533.36 556.665 4468.99 654.715 4299.33 707.783C4052.2 785.095 3759.85 705.597 3676.26 679.561C3603.88 655.826 3534.43 629.734 3468.24 601.414C3382.02 566.041 3292.97 529.183 3190.17 504.099C3011.3 459.965 2748.93 443.73 2594.85 512.388C2517.44 546.887 2476.78 594.258 2433.77 644.42C2390.76 694.582 2346.53 746.231 2262.08 789.573C2069.09 888.699 1782.73 868.215 1668.47 854.77C1618.55 848.92 1569.22 841.68 1520.66 834.69C1385.13 815.008 1257.22 796.411 1113.95 803.3C930.635 812.071 756.757 869.691 588.67 925.319C420.584 980.947 244.961 1038.67 55.4389 1049.81Z" fill="#E3DFEA"/>
<path d="M90.0754 1048.95C69.7928 1050.15 49.2612 1050.82 28.4768 1050.92C-86.4968 1051.43 -191.508 1031.55 -293.963 1012.34C-361.462 999.565 -431.282 986.396 -502.481 979.557C-678.554 962.612 -906.045 1001.69 -967.011 1094.47L-1007.98 1088.15C-939.116 982.645 -686.261 937.597 -491.594 956.279C-417.188 963.696 -345.725 976.886 -276.679 989.924C-173.444 1009.38 -76.0704 1027.77 31.9 1027.26C234.714 1026.3 416.395 967.399 608.699 904.923C771.591 852.136 940.067 797.546 1121.05 782.662C1268.07 770.601 1402.27 788.297 1531.96 805.375C1580.48 811.778 1630.66 818.379 1680.51 823.231C1786.06 833.592 2050.72 848.041 2229.24 759.552C2307.82 720.623 2353.02 674.223 2396.66 629.329C2445.68 578.99 2492.02 531.404 2580.4 495.611C2749.16 427.151 3025.93 442.775 3226.35 488.532C3333.39 513.072 3424.19 548.176 3512.09 582.154C3576.71 608.225 3644.32 632.161 3714.57 653.846C3793.97 677.299 4070.3 748.601 4293.76 681.994C4448.19 635.953 4509.4 549.29 4574.15 457.527C4600.29 418.318 4630.58 379.804 4664.87 342.188C4754.77 248.474 4918.98 165.838 5115.21 116.219C5311.44 66.6001 5518.04 55.5756 5679.73 86.6303L5662.44 108.987C5346.81 48.3681 4880.71 166.378 4702.85 351.805C4669.41 388.56 4639.83 426.184 4614.28 464.482C4549.34 556.729 4482.06 651.825 4312.04 702.556C4257.68 718.499 4198.63 728.375 4138.67 731.553C3944.35 742.976 3755.67 693.935 3690.86 674.812C3619.26 652.73 3550.35 628.359 3484.46 601.817C3394.33 566.969 3309.23 534.064 3206.3 510.462C3017.74 467.25 2758.48 451.658 2604.69 514.169C2525.07 546.38 2481.21 591.404 2434.77 639.056C2388.33 686.708 2341.89 734.419 2256.83 776.501C2062.79 872.681 1781.23 857.516 1669.18 846.417C1618.11 841.401 1567.28 834.721 1518.2 828.291C1386.75 810.963 1262.47 794.57 1123.95 805.955C951.895 820.078 787.502 873.367 628.473 924.866C457.439 980.609 281.233 1037.72 90.0754 1048.95Z" fill="#DED8E6"/>
<path d="M123.073 1048.13C101.619 1049.4 80.144 1050.05 58.7377 1050.09C-58.107 1050.41 -164.189 1029.06 -266.836 1008.45C-334.063 994.711 -403.581 981.112 -474.606 973.496C-652.534 954.774 -884.984 993.257 -950.321 1088L-991.094 1081.26C-917.091 973.862 -659.376 929.59 -463.184 950.01C-388.863 957.844 -317.665 972.111 -248.901 985.932C-145.256 1006.78 -47.2616 1026.43 61.9291 1026.2C264.771 1025.71 455.174 964.411 639.244 905.19C795.27 854.752 956.585 803.059 1128.48 786.116C1273.27 771.709 1405.23 786.531 1532.67 800.734C1580.58 806.053 1630.15 811.57 1679.39 815.396C1783.16 823.503 2043.93 832.935 2224.11 746.765C2303.3 708.861 2350.65 665.636 2397.32 623.748C2450.42 575.764 2500.39 530.498 2591.44 497.202C2769.9 431.885 3053.04 455.27 3241.29 495.198C3348.55 517.898 3439.45 550.874 3527.44 582.724C3591.75 607.059 3658.82 629.313 3728.32 649.382C3808.63 671.603 4087.58 739.213 4307.25 676.838C4462.12 632.893 4526.12 548.838 4593.75 459.557C4620.56 422.489 4651.04 386.098 4685.05 350.551C4877.06 158.279 5349.09 36.9141 5675.36 95.9654L5658.73 118.46C5356.68 63.7628 4901.95 181.458 4723.06 360.579C4689.9 395.327 4660.14 430.887 4633.91 467.1C4565.96 556.517 4495.68 648.96 4325.09 697.484C4092.83 763.428 3814.93 700.591 3706.14 670.494C3635.37 650.017 3567.04 627.347 3501.47 602.585C3411.35 569.858 3326.16 539.023 3222.89 517.15C3044.39 479.36 2777.69 456.423 2614.01 516.391C2531.96 546.387 2484.58 589.201 2434.94 634.565C2386.73 678.135 2336.97 723.212 2252.14 763.747C2057.16 857.035 1780.4 847.247 1670.48 838.676C1620.02 834.744 1569.9 829.142 1521.34 823.861C1392.14 809.526 1270.1 795.948 1133.56 809.339C970.374 825.417 812.285 876.153 659.897 925.199C488.941 980.407 313.031 1036.97 123.073 1048.13Z" fill="#D8D2E1"/>
<path d="M152.029 1047.43C131.047 1048.67 110.043 1049.3 89.1112 1049.3C-29.6114 1049.33 -136.322 1026.6 -239.488 1004.6C-306.528 990.322 -375.675 975.581 -446.837 967.502C-626.289 947.042 -863.484 984.861 -933.624 1081.66L-974.094 1074.49C-894.844 965.128 -632.913 921.846 -434.631 944.324C-360.162 952.798 -289.353 967.913 -220.762 982.51C-116.601 1004.68 -18.1999 1025.66 92.5347 1025.64C287.31 1025.69 470.456 965.636 647.592 907.589C803.9 856.367 965.47 803.422 1137.78 789.873C1284.49 778.301 1416.62 788.574 1544.47 798.509C1588.43 801.82 1633.5 805.36 1678.63 807.955C1780.73 813.743 2037.7 818.269 2219.66 734.294C2298.81 697.748 2348.98 657.717 2397.37 619.03C2454.76 573.269 2508.89 529.94 2603.05 499.232C2778.47 441.758 3055.79 463.068 3256.69 502.076C3364.17 522.994 3455.16 553.784 3543.14 583.571C3607.17 606.085 3673.61 626.659 3742.19 645.207C3846.3 672.101 4110.92 728.527 4320.86 672.03C4476.4 630.109 4543.39 548.589 4613.82 462.269C4641.02 427.45 4671.4 393.275 4704.86 359.881C4898.68 174.282 5358.93 53.4921 5670.92 106.131L5655.07 128.757C5366.51 80.0469 4923.13 197.369 4742.78 370.209C4709.95 402.941 4680.11 436.433 4653.37 470.556C4579.05 561.291 4508.91 647.063 4338.19 693.119C4110.58 754.427 3831.02 695.165 3721.36 666.83C3651.41 647.943 3583.67 626.973 3518.4 604.008C3428.19 573.467 3343.01 544.636 3239.52 524.544C3047.91 487.171 2785.49 466.224 2623.81 519.176C2538.67 546.995 2489.86 586.003 2433.43 631.176C2383.05 671.337 2331.11 712.887 2246.84 751.738C2051.04 842.186 1779.07 837.599 1671.58 831.419C1625.69 828.811 1579.95 825.015 1535.87 821.711C1405.29 811.701 1281.84 802.038 1141.44 813.121C978.065 825.968 820.902 877.534 668.671 927.396C503.875 981.298 334.899 1036.68 152.029 1047.43Z" fill="#D3CBDD"/>
<path d="M184.165 1046.84C162.56 1048.1 140.934 1048.73 119.386 1048.7C-0.996551 1048.41 -108.339 1024.24 -211.693 1000.9C-278.233 985.828 -347.424 970.323 -418.515 961.591C-599.605 939.341 -841.431 976.548 -916.487 1075.34L-956.648 1067.86C-872.247 956.782 -604.594 914.048 -406.193 938.524C-331.575 947.697 -260.938 963.588 -192.626 979.027C-87.9596 1002.35 10.8583 1024.84 123.045 1025.32C316.311 1025.75 498.398 966.291 674.252 908.791C824.551 859.574 980.659 808.658 1145.57 793.894C1291.21 780.794 1421.83 787.795 1548.17 794.575C1590.32 796.814 1634.01 799.198 1677.65 800.7C1777.99 804.294 2031.27 803.789 2214.89 721.957C2293.26 687.049 2345.27 650.388 2395.49 614.953C2457.59 571.156 2516.32 529.797 2614.45 501.391C2830.37 438.706 3171.93 491.67 3271.46 509.401C3379.16 528.537 3470.24 557.14 3558.42 584.794C3622.06 605.551 3687.85 624.468 3755.54 641.474C3886.5 672.861 4135.69 718.05 4334.06 667.539C4490.38 627.753 4560.14 548.606 4634 464.854C4661.9 433.207 4690.83 400.438 4725.09 369.007C4919.98 190.419 5368.53 69.9042 5666.15 116.196L5651.19 139.006C5375.99 96.2304 4944.3 213.219 4762.28 379.908C4729.06 410.395 4700.31 442.504 4673.14 473.578C4596.34 561.334 4522.44 644.439 4350.49 688.386C4136.06 742.965 3873.29 695.744 3736.21 662.712C3667.37 645.428 3600.5 626.16 3535.86 604.984C3445.45 576.637 3360.06 549.881 3256.45 531.447C3160.91 514.426 2833.69 463.507 2633.69 521.542C2544.81 547.281 2491.76 584.711 2430.39 627.817C2380.9 662.678 2324.79 702.232 2242.05 739.108C2045.42 826.715 1778.25 827.388 1672.54 823.58C1628.68 821.972 1584.12 819.699 1541.64 817.362C1412.44 810.454 1290.38 803.952 1150.52 816.772C994.325 830.788 842.516 880.389 695.645 928.344C532.327 981.334 364.963 1036.21 184.165 1046.84Z" fill="#CDC5D9"/>
<path d="M216.17 1045.9C193.976 1047.2 171.76 1047.8 149.637 1047.69C27.489 1047.15 -80.2633 1021.59 -184.481 996.589C-251.066 980.754 -319.975 964.466 -391.213 955.094C-574.489 931.026 -822.835 970.857 -900.257 1068.49L-940.115 1060.58C-850.474 947.427 -578.38 905.787 -377.903 932.086C-303.137 941.899 -232.653 958.92 -164.426 974.776C-59.4446 999.732 39.7625 1023.26 153.374 1023.77C345.247 1024.7 526.372 965.65 701.379 908.612C846.325 861.419 996.1 812.586 1153.61 796.665C1298.51 782.252 1427.73 785.739 1552.68 789.3C1593.12 790.46 1634.89 791.719 1676.83 792.26C1775.39 793.6 2024.99 788.124 2210.27 708.553C2287.01 675.568 2340.1 642.498 2391.4 610.537C2459.17 568.352 2523.14 528.512 2625.78 502.435C2821.89 452.646 3124.19 489.231 3286.8 515.456C3394.61 532.7 3486.33 559.201 3574.39 584.74C3636.17 602.567 3700.06 620.978 3769.57 636.405C3931.77 672.382 4163.76 705.966 4347.83 661.778C4505.26 624.049 4578.11 547.255 4655.4 466.014C4683.22 436.671 4711.97 406.33 4745.59 377C4941.64 205.241 5378.41 85.183 5661.86 125.115L5647.89 148.044C5386.06 111.144 4965.3 227.903 4782.14 388.292C4749.67 416.729 4721.23 446.64 4693.82 475.487C4612.62 561.026 4535.96 641.759 4362.9 683.589C4164.36 731.221 3920.27 696.344 3750.42 658.695C3679.02 642.848 3614.24 624.195 3551.57 606.066C3461.07 579.905 3375.47 555.225 3271.52 538.462C3114.65 513.137 2824.34 477.616 2641.71 524.018C2548.02 547.742 2490.06 583.809 2423.02 625.303C2372.78 656.672 2315.67 692.217 2235.41 726.706C2038.07 811.526 1775.69 817.399 1671.66 815.969C1629.28 815.394 1587.08 814.22 1546.3 813.02C1418.28 809.345 1297.38 805.84 1157.83 819.998C1008.47 835.086 862.349 882.702 721.054 928.738C561.434 981.333 395.115 1035.38 216.17 1045.9Z" fill="#C8BFD5"/>
<path d="M247.859 1045.16C225.078 1046.51 202.273 1047.1 179.574 1046.93C55.7663 1046.08 -52.4947 1019.31 -157.116 993.033C-223.742 976.493 -292.263 959.357 -363.648 949.346C-548.448 923.54 -801.645 962.772 -883.87 1062.46L-923.418 1054.23C-828.418 939.173 -551.678 898.38 -349.67 926.535C-274.866 936.994 -204.46 954.549 -136.385 971.535C-31.0011 997.764 68.5001 1022.57 183.993 1023.45C374.578 1024.8 554.75 966.279 728.901 909.587C867.944 864.333 1011.72 817.621 1161.72 800.667C1306.29 784.328 1434.34 784.642 1558.12 785.147C1596.54 785.306 1636.27 785.388 1675.97 785.059C1773.08 784.125 2018.89 773.684 2205.83 696.256C2269.02 669.359 2328.55 639.937 2383.83 608.269C2461.52 565.442 2528.61 528.426 2637.85 504.907C2780.89 473.684 3004.58 479.695 3302.56 522.9C3410.72 538.591 3501.86 562.768 3590.77 586.075C3651.79 602.178 3715.03 618.799 3783.69 632.744C4023.46 681.493 4218.06 689.744 4361.82 657.712C4520.68 621.963 4596.94 547.444 4677.65 468.478C4705.18 441.569 4733.63 413.78 4766.18 386.635C4963.51 221.758 5388.48 102.099 5657.67 135.736L5644.98 158.118C5396.3 127.048 4986.79 243.499 4802.28 397.719C4771.01 424.081 4742.64 451.512 4715.53 478.042C4630.57 561.09 4549.95 639.579 4375.97 678.752C4221.32 713.605 4016.44 705.428 3765.72 654.552C3695.28 640.24 3631.26 623.37 3569.36 607.142C3478.43 583.01 3392.53 560.588 3288.24 545.437C2999.41 503.462 2785.12 497.194 2651.26 526.403C2551.32 548.195 2487.51 583.191 2413.64 624.025C2356.88 656.526 2295.76 686.713 2230.85 714.298C2032.7 796.395 1775.11 807.41 1673.62 808.365C1633.26 808.733 1593.42 808.599 1554.79 808.512C1427.62 808.088 1307.56 807.658 1167.66 823.487C1025.37 839.574 885.036 885.199 749.428 929.309C589.661 981.265 425.277 1034.73 247.859 1045.16Z" fill="#C2B8D0"/>
<path d="M280.639 1044.35C257.271 1045.73 233.88 1046.32 210.602 1046.11C85.1308 1044.88 -23.4414 1016.54 -128.441 989.403C-195.112 972.099 -263.464 954.127 -334.989 943.594C-521.314 916.05 -779.252 954.676 -866.294 1056.18L-905.644 1047.59C-805.395 930.627 -523.791 890.669 -320.578 920.698C-245.406 931.843 -175.064 950.169 -107.162 967.931C-1.47706 995.558 98.4272 1021.64 214.7 1022.76C404.216 1024.53 583.42 966.304 756.938 910.003C889.974 866.811 1027.63 822.168 1170.03 804.306C1314.83 786.185 1442.35 783.228 1565.39 780.358C1601.24 779.548 1638.28 778.667 1675.41 777.486C1877.02 770.823 2068.8 736.676 2201.58 683.654C2260.35 659.706 2316.85 634.105 2370.84 606.97C2457.53 564.674 2532.42 528.084 2649.44 506.644C2827.3 473.904 3086.74 499.921 3318.27 529.523C3426.76 543.484 3518.76 565.43 3607.87 586.603C3668.12 600.747 3729.96 615.8 3798.21 628.471C4045.9 674.279 4235.01 682.145 4376.17 652.447C4536.9 618.711 4613.05 549.622 4701.35 469.561C4728.26 445.165 4756.1 419.947 4787.25 395.066C4985.86 236.952 5398.71 117.828 5653.85 145.158L5642.3 168.357C5406.76 143.117 5008.5 259.261 4822.65 407.31C4792.34 431.494 4764.92 456.392 4738.32 480.476C4649.4 561.221 4565.36 637.436 4388.63 674.471C4237.3 706.24 4038.36 698.539 3780.71 650.959C3711.35 638.117 3647.79 623.401 3587.28 608.565C3495.84 586.822 3409.71 566.24 3304.64 552.785C3093.06 525.547 2828.62 498.233 2660.61 529.155C2552.36 548.96 2484.38 582.138 2398.22 624.166C2343.07 651.896 2285.31 678.043 2225.23 702.484C2033.64 779.007 1797.81 797.233 1674.29 801.251C1636.73 802.516 1599.46 803.351 1563.51 804.226C1436.75 807.138 1317.1 809.927 1176.32 827.517C1040.98 844.493 912.665 886.111 776.838 930.233C618.542 981.159 455.658 1034.06 280.639 1044.35Z" fill="#BCB2CC"/>
<path d="M312.106 1043.57C288.188 1044.99 264.244 1045.57 240.427 1045.3C113.299 1043.81 4.42259 1014.02 -101.001 985.256C-167.717 967.188 -235.786 948.434 -307.568 937.267C-495.308 907.979 -758.201 946.071 -850.058 1049.45L-889.098 1040.54C-783.489 921.677 -497.24 882.566 -292.601 914.516C-217.176 926.235 -146.892 945.449 -79.0541 963.981C27.048 993.116 127.127 1020.31 244.723 1021.59C433.168 1023.77 611.841 965.814 784.5 909.799C911.53 868.67 1042.74 826.057 1177.55 807.52C1323.64 787.142 1445.41 781.222 1574.36 774.703C1607.09 773.074 1639.82 771.386 1673.96 769.438C1790.55 762.938 2013.25 741.122 2196.54 670.51C2255.4 647.891 2304.9 626.351 2348.54 607.339C2451.18 562.632 2532.37 527.322 2661.13 508.08C2843.24 480.75 3110.92 511.116 3326.04 535.198L3332.98 535.969C3441.92 548.254 3534.66 567.916 3624.31 586.935C3683.59 599.544 3744.86 612.508 3811.38 623.572C3986.54 652.774 4210.59 681.755 4389.41 646.895C4552.34 615.152 4632.31 547.843 4725 469.882C4750.86 448.082 4777.11 425.552 4807.09 403.215C5006.1 251.916 5407.6 133.224 5648.69 154.246L5638.49 177.956C5416.2 158.598 5028.98 274.447 4841.9 416.379C4813.2 438.169 4786.71 460.418 4761.17 481.964C4667.31 560.583 4579.64 634.77 4401.36 669.48C4210.09 706.721 3977.22 676.726 3795.78 646.655C3727.71 635.329 3665.77 622.168 3605.83 609.48C3513.63 589.903 3426.54 571.442 3320.91 559.553L3314.07 558.717C3103.46 535.018 2841.52 505.435 2669.71 531.275C2550.39 549.077 2476.45 581.19 2374.24 625.695C2330.07 644.916 2280.02 666.605 2220 689.824C2027.39 763.872 1796.53 786.521 1675.25 793.356C1641.34 795.349 1608.08 797.304 1575.11 798.653C1448.01 805.063 1327.89 811.122 1185.16 830.772C1057.08 848.441 934.562 888.185 804.854 930.297C647.744 980.917 486.035 1033.34 312.106 1043.57Z" fill="#B7ABC8"/>
<path d="M344.017 1042.87C319.544 1044.3 295.049 1044.85 270.691 1044.52C142.013 1042.72 32.7158 1011.35 -72.9951 981.428C-139.214 962.505 -207.655 943.006 -279.693 931.206C-468.849 900.174 -736.479 937.719 -833.368 1042.99L-872.098 1033.77C-764.624 916.853 -470.9 874.591 -264.174 908.54C-188.493 920.893 -118.252 941.229 -50.3831 960.29C55.8972 990.594 156.277 1019.18 275.209 1020.86C462.697 1023.51 640.729 965.824 812.959 909.953C933.652 870.847 1058.42 830.381 1185.44 811.418C1335.12 788.825 1458.53 779.153 1589.23 768.876L1672.98 762.184C1787.43 752.803 2007.05 726.747 2192.1 658.155C2236.86 641.551 2277.07 625.746 2312.48 611.875C2437.83 562.65 2528.31 527.147 2673.08 510.325C2835 491.315 3061.76 514.241 3261.89 534.665C3291.39 537.647 3320.34 540.544 3348.29 543.263C3458.34 553.89 3547.62 570.572 3642.44 588.226C3700.41 599.026 3760.37 610.181 3825.39 619.8C4025.72 649.29 4234.46 672.746 4403.38 642.419C4569.26 612.623 4653.37 546.898 4750.88 470.777C4775.14 451.665 4800.36 432.084 4827.66 412.44C5027.94 267.905 5417.1 149.643 5644.04 164.423L5635.57 187.854C5426.21 174.28 5050.02 289.834 4861.7 425.648C4834.93 444.908 4810.03 464.411 4785.97 483.158C4687.83 559.67 4595.14 632.207 4413.66 664.747C4232.18 697.286 4017.28 673.25 3810.53 642.604C3744.31 632.82 3683.68 621.527 3625.15 610.583C3531.89 593.251 3443.82 576.851 3337.07 566.501C3309.01 563.789 3279.95 560.84 3250.45 557.857C3054.29 538.025 2832.16 515.594 2678.71 533.575C2543.62 549.297 2461.05 581.741 2335.91 630.777C2300.18 644.668 2259.76 660.662 2214.46 677.473C2021.7 748.937 1794.38 775.976 1676.01 785.764L1591.93 792.475C1462.75 802.604 1340.65 812.199 1193.9 834.325C1072.97 852.635 956.469 890.433 832.986 930.47C677.16 980.602 516.524 1032.67 344.017 1042.87Z" fill="#AFA3C2"/>
<path d="M375.924 1042.11C350.933 1043.6 325.915 1044.13 301.061 1043.68C171.061 1041.72 61.1388 1009.03 -44.8696 977.77C-111.024 958.078 -179.514 937.756 -251.821 925.087C-442.39 892.369 -714.87 929.315 -816.681 1036.46L-855.211 1026.94C-742.367 908.293 -443.895 866.755 -235.75 902.507C-159.8 915.728 -89.541 936.358 -21.6069 956.535C84.8619 988.183 185.427 1018.06 305.678 1019.83C492.423 1022.88 670.023 965.281 841.718 909.618C955.964 872.541 1074.18 834.17 1193.4 814.547C1351.3 788.522 1480.04 774.705 1616.29 760.211L1671.86 754.291C1784.4 742.076 2000.91 711.721 2187.39 645.108L2251.68 621.816C2417.01 562.105 2516.76 526.057 2684.33 511.962C2828.92 499.631 3020.49 517.787 3205.68 535.316C3260.7 540.571 3312.86 545.464 3363.11 549.643C3474.27 558.672 3565.06 573.143 3660.84 588.618C3717.07 597.634 3775.28 606.946 3838.24 615.094C4005.95 636.835 4235.2 666.689 4416.19 637.008C4585.81 609.351 4674.69 544.702 4777.65 470.088C4799.79 454.048 4822.78 437.369 4847.18 420.665C5048.3 282.92 5425.24 165.199 5638.35 173.718L5631.85 197.268C5435.2 189.433 5070.05 304.751 4880.6 434.5C4856.62 450.943 4833.85 467.433 4811.91 483.342C4708.32 558.406 4610.51 629.299 4425.94 659.603C4233.9 691.172 3997.61 660.552 3825.04 638.154C3761.11 630.122 3702.33 620.49 3645.55 611.389C3550.77 596.208 3461.3 581.896 3353 573.111C3302.2 568.964 3249.94 564.019 3194.59 558.842C3012.81 541.584 2824.87 523.804 2687.36 535.601C2529.92 548.865 2433.38 583.722 2273.51 641.519C2253.03 648.618 2231.41 656.728 2208.58 664.85C2015.67 733.904 1792.32 765.25 1676.42 777.782L1620.85 783.76C1485.69 798.249 1358.03 811.884 1202.32 837.839C1088.62 856.313 978.243 892.278 861.322 930.396C706.9 980.21 547.123 1031.99 375.924 1042.11Z" fill="#AA9CBE"/>
<path d="M407.722 1041.36C382.18 1042.88 356.612 1043.39 331.217 1042.91C199.761 1040.38 89.5483 1006.48 -16.768 973.702C-82.9677 953.246 -151.506 932.102 -224.052 919.093C-416.033 884.69 -693.253 921.03 -800.097 1030.07L-838.317 1020.23C-720.216 899.8 -416.775 859.03 -207.429 896.598C-131.123 910.27 -60.9116 931.964 6.95833 952.912C113.721 985.839 214.58 1016.99 336.065 1019.28C522.29 1022.78 699.453 965.203 870.927 909.494C978.294 874.531 1089.86 838.32 1201.17 818.394C1383.84 785.608 1529.64 765.895 1670.66 746.817C1781.17 731.89 1994.69 697.172 2182.6 632.538C2388.74 561.468 2505.37 524.016 2696.26 513.914C2825.41 506.971 2993.53 522.556 3156.14 537.639C3230.85 544.567 3307.97 551.706 3378.5 556.403C3481.79 563.925 3583.63 574.949 3683.43 589.413C3737.14 596.632 3792.73 604.035 3852.65 610.711L3888.1 614.522C4055.09 633.298 4262.62 656.706 4430.65 631.737C4605.08 605.743 4698.95 542.333 4808.54 468.803C4827.81 455.88 4847.59 442.514 4868.35 429.031C5069.98 298.094 5435.02 180.837 5633.97 183.055L5629.68 206.888C5445.62 204.797 5091.5 319.82 4900.94 443.563C4880.48 456.557 4860.81 470.093 4841.76 482.886C4727.57 560.047 4628.5 626.415 4439.34 654.749C4261.11 681.261 4047.75 657.252 3876.24 637.975L3840.89 634.158C3780.21 627.409 3724.18 619.914 3670.03 612.721C3571.89 598.441 3471.74 587.554 3370.15 580.121C3298.53 575.429 3220.86 568.205 3145.82 561.238C2985.96 546.406 2820.7 531.065 2697.34 537.727C2516.15 547.317 2409.51 581.706 2204.12 652.378C2010.42 719.004 1791.48 754.63 1678.25 769.952C1538.1 788.861 1393.06 808.47 1211.91 840.931C1105.57 859.975 1001.42 893.864 891.154 929.704C736.961 979.682 577.943 1031.36 407.722 1041.36Z" fill="#A496BA"/>
<path d="M439.52 1040.61C413.5 1042.14 387.455 1042.65 361.59 1042.13C228.362 1039.23 118.615 1003.95 11.6743 969.849C-54.5738 948.57 -123.157 926.662 -195.959 913.02C-389.335 877.225 -671.419 912.731 -783.192 1023.53L-821.204 1013.5C-697.85 891.234 -389.549 851.24 -179.002 890.624C-102.328 904.981 -32.0713 927.439 35.9595 949.261C142.907 983.475 243.839 1015.86 366.643 1018.25C552.346 1022.19 729.503 964.498 900.857 908.619C1001.67 875.751 1105.93 841.797 1209.13 821.699C1380.72 788.385 1514.23 764.443 1669.76 739.088C1778.15 721.398 1988.68 682.317 2178.12 619.538C2384.09 551.366 2509.41 520.241 2708.19 515.807C2823.04 513.124 2962.89 526.362 3111.11 540.287C3206.07 549.266 3304.32 558.406 3394.1 563.032C3500.92 569.083 3606.64 578.197 3710.84 590.337C3760.39 595.678 3811.71 601.209 3866.72 606.288C3889.94 608.461 3914.04 610.817 3938.58 613.206C4102.57 629.329 4288.46 647.583 4444.8 626.779C4625.16 603.03 4721.09 542.919 4842.46 466.927C4857.55 457.433 4872.96 447.802 4888.91 438.022C5090.95 314.135 5443.74 197.067 5628.76 193.089L5627.09 216.768C5455.51 220.487 5112.12 335.469 4920.64 452.84C4904.79 462.556 4888.96 472.388 4874.51 481.55C4752.4 557.998 4646.96 623.974 4451.86 649.945C4286.17 672.006 4095.55 653.205 3927.38 636.738C3902.84 634.349 3878.96 631.98 3855.85 629.86C3800.29 624.696 3748.76 619.177 3698.98 613.79C3596.15 601.813 3491.82 592.814 3386.41 586.829C3294.99 582.24 3195.97 572.911 3100.56 563.839C2954.77 550.067 2817.01 537.118 2706.87 539.82C2518.04 544.14 2397.67 573.913 2198.77 639.547C2004.72 704.011 1789.96 743.695 1679.3 761.755C1524.54 787.123 1391.78 810.786 1220.87 844.414C1121.98 863.609 1024.38 895.403 920.993 929.13C767.341 979.016 608.978 1030.65 439.52 1040.61Z" fill="#9F8FB6"/>
<path d="M471.318 1039.86C444.779 1041.45 418.211 1041.93 391.851 1041.29C257.181 1038.07 146.806 1001.4 40.0075 966C-26.2855 943.958 -94.9166 921.228 -168.084 906.959C-362.78 869.178 -649.697 904.378 -766.502 1017.06L-804.204 1006.72C-675.59 882.732 -362.428 843.513 -150.575 884.647C-73.0993 899.607 -3.21686 923.148 64.8485 945.557C171.985 981.116 273.098 1014.73 397.357 1017.68C582.87 1022.11 760.115 964.053 931.456 907.938C1025.18 877.256 1122.12 845.559 1217.35 825.577L1355.15 796.372C1465.81 772.77 1561.45 752.41 1668.68 731.84C1775.91 711.27 1982.25 667.954 2173.56 607.071C2389.89 538.231 2522.55 516.579 2719.71 518.076C2820.86 518.792 2941.49 530.743 3069.16 543.341C3183.06 554.331 3300.95 566.325 3409.07 570.109C3535.92 574.443 3639.62 583.086 3750.44 592.017C3791.9 595.475 3834.77 598.85 3880.15 602.078C3914.55 604.654 3949.86 607.707 3987.14 610.881C4139.79 624.073 4312.79 638.9 4458.3 621.857C4646.74 599.697 4750.1 539.384 4881.07 462.946L4909.32 446.489C5111.53 329.135 5451.79 212.923 5623.2 202.67L5624.58 226.17C5465.05 235.548 5132.36 350.313 4939.99 461.9L4911.85 478.293C4780.56 554.926 4667.15 621.135 4464.26 644.97C4310.38 663.036 4133.2 647.748 3976.8 634.244C3939.63 631.064 3904.55 628.057 3870.7 625.507C3824.99 622.299 3782.01 618.93 3740.44 615.478C3630.5 606.613 3527.58 598.22 3402.58 593.777C3292.05 589.899 3172.96 578.093 3057.85 566.879C2931.94 554.414 2812.96 542.661 2715.43 542.027C2527.79 540.559 2400.98 561.336 2193.14 627.496C1998.62 689.453 1788.16 733.541 1680.07 754.28C1571.97 775.019 1478.06 795.042 1367.72 818.565C1324.5 827.827 1278.67 837.477 1229.71 847.783C1138.48 866.941 1047.55 896.693 951.36 928.227C798.151 978.206 640.122 1029.94 471.318 1039.86Z" fill="#9B8BB3"/>
<path d="M503.116 1039.12C476.062 1040.72 448.98 1041.19 422.116 1040.52C285.99 1036.73 175.328 998.901 68.3408 962.154C2.02022 939.642 -66.135 915.704 -140.213 900.84C-336.215 861.309 -627.869 895.962 -749.819 1010.48L-787.208 999.889C-653.336 874.114 -335.318 835.612 -122.281 878.269C-44.7676 893.874 25.5925 918.094 93.7166 941.503C201.038 978.347 302.332 1013.19 427.58 1016.2C613.261 1021.62 790.71 963.316 961.917 906.797C1052.19 877.025 1137.64 848.892 1224.46 829.227C1307.18 810.511 1379.34 792.886 1449.14 775.873C1522.5 758.001 1591.76 741.137 1667.15 724.384C1838.55 686.529 2006.19 643.024 2169.07 594.129C2401.79 522.97 2546.19 513.008 2731.41 519.806C2819.13 522.962 2922.08 533.888 3030.77 545.48C3162.9 559.467 3298.45 574.018 3424.33 576.582C3577.68 579.358 3697.81 586.504 3837.35 594.395L3894 597.609C3938.9 600.098 3985.51 603.667 4034.86 607.427C4183.36 618.742 4336.91 630.408 4472.44 616.605C4671.38 596.421 4784.18 534.728 4927.1 456.645L4930.28 454.867C5131.69 344.516 5459.94 228.833 5617.85 212.299L5622.94 235.581C5475.39 251.388 5152.85 365.675 4960.02 471.335L4956.73 473.061C4808.32 554.415 4690.51 618.406 4477.11 640.324C4334.61 654.596 4170.85 642.292 4025.55 631.497C3976.53 627.776 3930.37 624.24 3886.14 622.006L3829.49 618.793C3690.71 610.915 3570.93 604.161 3419.31 601.048C3290.15 598.441 3152.4 583.783 3019.16 569.567C2911.8 558.192 2809.95 547.377 2725.08 544.29C2544.58 537.627 2411.95 546.78 2188.26 615.227C2023.86 664.53 1854.67 708.401 1681.69 746.58C1606.95 763.177 1538.01 779.963 1465.09 797.75C1395.08 814.835 1322.58 832.479 1239.33 851.345C1156.07 870.211 1071.91 897.914 983.031 927.191C829.499 977.248 671.701 1029.21 503.116 1039.12Z" fill="#9684AF"/>
<path d="M534.917 1038.43C507.339 1040.07 479.733 1040.49 452.377 1039.68C314.833 1035.98 204.064 996.328 96.7831 958.302C30.3969 934.673 -38.3312 910.298 -112.222 894.892C-333.785 848.669 -617.971 898.683 -733.125 1004.08L-770.201 993.231C-644.04 877.754 -334.337 822.526 -93.8298 872.706C-16.2749 889.016 54.4607 914.04 122.63 938.212C230.139 976.402 331.612 1012.41 458.101 1016.06C644.436 1021.44 822.058 962.358 994.209 905.135C1076.53 877.835 1154.23 851.985 1232.77 832.807C1325.65 810.192 1405.22 788.124 1481.55 766.835C1543.66 749.507 1602.34 733.147 1666.49 716.937C1768.59 691.068 1969.07 639.136 2164.4 581.553C2391.68 514.781 2543.12 509.18 2742.82 522.202C2818.39 527.074 2904.22 537.12 2995.23 547.747C3136.37 564.269 3296.36 583.103 3439.52 583.707C3610.38 584.629 3741.64 587.407 3907.67 593.623C3962.5 595.764 4020.62 599.658 4081.7 603.79C4218.83 613.416 4360.64 622.765 4486.17 611.967C4683.13 595.142 4797.98 542.348 4950.83 463.858C5151.89 360.485 5466.94 245.46 5611.78 222.561L5620.99 245.188C5484.39 266.836 5172.58 381.14 4979.48 480.39C4825.05 559.799 4699.53 617.346 4489.73 635.338C4357.88 646.567 4213.08 636.745 4073.45 627.208C4012.91 623.103 3955.79 619.268 3901.61 617.206C3736.46 610.997 3605.64 608.252 3436.09 607.313C3288.55 606.554 3126.36 587.555 2983.24 570.854C2893.33 560.34 2808.27 550.425 2734.68 545.672C2543.99 533.3 2399.64 538.543 2183.22 602.141C1986.7 659.912 1784.83 712.162 1682.73 738.09C1619.44 754.131 1561.09 770.354 1499.61 787.527C1422.42 808.984 1342.64 831.183 1248.68 854.097C1173.17 872.567 1096.43 898.006 1015.39 924.877C861.378 976.023 703.503 1028.52 534.917 1038.43Z" fill="#907EAA"/>
<path d="M566.607 1037.68C538.55 1039.34 510.465 1039.75 482.641 1038.9C343.744 1034.51 232.695 993.818 125.335 954.441C58.2491 930.087 -9.98194 904.857 -84.3468 888.831C-307.223 840.74 -596.675 890.532 -716.33 997.55L-753.198 986.512C-622.318 869.402 -307.339 814.571 -65.5118 866.737C12.8443 883.649 83.4101 909.507 151.631 934.561C259.326 974.037 360.98 1011.27 488.474 1015.27C675.389 1021.21 854.156 961.119 1027.02 903.087C1096.21 878.86 1167.53 856.621 1240.64 836.47C1337.63 811.079 1419.17 785.416 1498.03 760.56C1554.22 742.872 1607.29 726.134 1665.5 709.448C1805.41 669.566 1987.5 617.595 2159.83 568.969C2383.61 505.823 2541.43 504.563 2754.33 524.413C2817.81 530.29 2888.27 539.413 2962.81 549.121C3118.4 569.451 3294.7 592.16 3454.7 590.596L3551.04 589.59C3678.31 588.003 3788.33 586.901 3921.32 589.459C3985.84 590.736 4052.98 595.456 4124.83 600.37C4251.74 609.24 4382.92 618.33 4499.02 607.143C4700.96 587.667 4825.16 543.049 4971.47 472.548C5166.85 378.529 5475.02 261.903 5605.6 232.768L5619.46 254.532C5492.77 282.79 5191.24 397.08 4998.63 489.698C4845.84 563.528 4715.73 609.908 4503.01 630.43C4380.28 642.302 4245.69 632.941 4115.59 623.728C4045.16 618.848 3978.57 614.096 3916.03 612.998C3784.57 610.467 3675.22 611.707 3548.16 613.163L3451.71 614.176C3286.24 615.708 3107.17 592.513 2949.17 572.03C2875.29 562.46 2805.82 553.339 2743.33 547.638C2535.27 528.27 2390.57 529.407 2176.8 589.666C2004.58 638.286 1822.28 690.269 1682.7 730.132C1625.33 746.474 1572.69 763.068 1516.94 780.671C1437.33 805.69 1355.02 831.456 1256.32 857.479C1184.74 877.281 1114.9 899.098 1047.12 922.834C894.011 974.575 735.628 1027.75 566.607 1037.68Z" fill="#8A78A6"/>
<path d="M596.329 1037C568.444 1038.64 540.534 1039 512.903 1038.07C372.669 1033.28 261.432 991.246 153.889 950.642C87.3009 925.433 18.3809 899.654 -56.3629 882.766C-280.662 832.813 -575.266 882.437 -699.626 991.323L-736.293 979.978C-601.012 861.43 -280.324 806.913 -37.1766 861.064C41.5447 878.603 112.272 905.336 180.646 931.147C288.42 971.974 390.25 1010.32 518.971 1014.72C707.13 1021.35 887.02 959.896 1061.02 900.619C1126.03 878.463 1187.4 857.818 1248.53 840.37C1337.55 814.607 1424.29 786.345 1508.36 755.709C1558.42 738.029 1610.08 719.723 1664.54 702.373C1786.56 663.425 1970.76 606.495 2155.27 556.564C2399.23 490.521 2576.09 504.06 2766.29 526.894C2818.2 533.099 2874.37 541.234 2933.97 549.875C3102.71 574.325 3294.08 602.043 3470.44 597.749C3532.17 596.242 3588.95 594.201 3643.87 592.211C3739.85 588.75 3830.59 585.421 3935.42 585.507C4012.84 586.479 4089.75 589.831 4165.8 595.546C4283.44 603.133 4405.03 610.96 4513.62 602.336C4699.86 587.497 4829.79 554.746 4992.89 481.312C5178.38 397.838 5478.93 279.95 5599.76 243.312L5618.8 263.711C5512.15 296.037 5220.9 408.249 5019.2 498.984C4848.64 575.804 4712.35 610.167 4516.63 625.74C4402.38 634.814 4277.82 626.75 4157.33 619.035C4082.84 613.36 4007.5 609.995 3931.66 608.956C3828.37 609.132 3738.38 612.123 3643.06 615.604C3587.92 617.607 3530.92 619.661 3468.31 621.16C3285.4 625.604 3090.72 597.432 2919.1 572.502C2859.96 564.188 2804.09 555.682 2753.63 549.746C2565.62 527.136 2403.61 514.788 2172.68 577.294C1989.58 626.907 1806.12 683.498 1684.75 722.29C1631.04 739.301 1582.27 756.611 1530.5 774.924C1445.12 806.169 1356.99 834.966 1266.5 861.186C1207.19 877.878 1146.57 898.478 1082.42 920.348C934.043 970.573 768.84 1026.86 596.329 1037Z" fill="#836FA1"/>
<path d="M628.127 1036.25C599.635 1038.04 571.1 1038.47 542.854 1037.55C401.281 1032.31 289.858 988.985 182.219 946.736C115.04 920.796 46.3856 893.94 -28.713 876.601C-254.421 825.021 -554.086 874.176 -683.287 984.467L-719.303 973.025C-578.653 852.746 -253.341 798.723 -8.88628 854.625C70.4182 872.778 141.193 900.334 209.729 927.02C317.572 969.022 419.587 1008.65 549.426 1013.46C739.467 1020.45 920.913 957.549 1096.35 896.714C1151.9 877.472 1204.34 859.239 1256.27 843.57C1346.02 815.637 1432.66 784.605 1515.61 750.684C1562.99 732.041 1611.87 712.838 1663.53 694.532C1820.27 638.512 1983.02 588.017 2150.66 543.393C2393.81 480.287 2578.33 499.388 2777.23 528.609L2829.99 536.414C3024.37 565.135 3266.33 600.845 3487.32 603.889C3578.44 605.195 3657.51 599.013 3741.16 592.387C3810.06 586.303 3879.25 582.374 3948.37 580.619C4034.73 579.08 4129.24 584.135 4220.78 589.012C4324.09 594.73 4430.88 600.243 4527.62 596.737C4708.11 590.078 4844.1 560.035 5012.73 489.342C5168.86 423.923 5384.25 337.158 5512.95 285.378L5592.37 253.355L5616.65 271.913L5537.24 303.935C5408.97 355.69 5193.47 442.344 5037.66 507.626C4890.17 569.353 4747.05 612.195 4527.25 620.163C4426.91 623.881 4318.24 618.065 4213.19 612.45C4118.9 607.381 4029.88 602.651 3946.47 604.076C3878.91 605.86 3811.29 609.736 3743.95 615.686C3662.05 622.151 3577.42 628.777 3482.03 627.428C3255.98 624.032 3011.48 587.882 2814.9 558.878L2762.13 551.073C2564.89 522.108 2395.79 504.636 2166.33 564.225C2000.56 608.338 1839.64 658.272 1684.68 713.686C1634.09 731.575 1588.33 749.77 1538.8 769.071C1454.24 803.593 1365.95 835.193 1274.52 863.662C1223.88 878.959 1172.09 896.919 1117.18 915.946C968.597 968.305 802.165 1026.02 628.127 1036.25Z" fill="#7E699C"/>
<path d="M659.929 1035.56C631.003 1037.29 602.048 1037.59 573.428 1036.46C430.846 1030.81 318.799 986.163 211.105 942.973C143.878 916.211 75.1742 888.533 -0.504209 870.638C-227.645 817.02 -532.452 866.183 -666.158 978.035L-702.3 966.306C-556.263 844.591 -226.224 790.938 19.5546 848.885C99.2312 867.782 170.16 896.096 238.853 923.597C346.878 966.827 448.856 1007.7 579.922 1012.91C772.737 1020.55 964.495 952.51 1133.53 892.523C1178.97 876.351 1221.85 861.215 1264.18 847.762C1363.07 815.773 1443.52 780.743 1520.86 746.955C1566.11 727.317 1612.84 707.002 1662.15 687.715C1778.85 642.123 1957.49 577.975 2145.36 531.265C2389.41 470.581 2573.11 494.329 2787.78 531.348L2789.44 531.605C2986.87 565.687 3257.37 612.335 3501.67 611.534C3591.59 611.2 3669.56 602.961 3752.32 594.206C3821.99 585.983 3892.25 580.277 3962.61 577.128C4059.46 573.616 4165.38 579.18 4267.9 584.532C4359.99 589.317 4455.15 594.276 4541.93 592.535C4731.99 588.732 4869.96 562.464 5033.85 498.77C5239.57 418.822 5503 309.779 5586.27 265.032L5615.76 280.984C5530.91 326.649 5264.73 437.21 5057.49 517.424C4887.5 583.481 4737.63 612.04 4540.13 615.986C4450.4 617.782 4353.92 612.724 4260.3 607.852C4159.54 602.633 4055.38 597.201 3962.02 600.567C3893.85 603.674 3825.78 609.211 3758.26 617.143C3677.25 625.737 3593.52 634.609 3499.43 634.952C3247.81 635.771 2974.32 588.474 2774.22 553.781L2772.45 553.531C2566.73 517.932 2391.19 495.178 2161.79 552.17C1977.16 598.1 1801.31 661.259 1686.32 706.161C1637.97 725.038 1591.77 745.145 1547.5 764.549C1468.43 798.674 1386.61 834.493 1284.81 867.418C1243.36 880.82 1200.91 895.931 1156.11 911.829C1004.65 965.536 836.475 1025.18 659.929 1035.56Z" fill="#786298"/>
<path d="M691.938 1034.68C662.419 1036.44 632.872 1036.72 603.682 1035.5C459.539 1029.36 347.852 983.394 239.867 938.983C172.592 911.398 103.513 882.917 27.5819 864.448C-200.981 808.968 -510.945 857.903 -649.372 971.33L-685.198 959.405C-534.871 836.2 -199.131 782.743 47.9713 842.734C128.119 862.193 199.212 891.44 267.953 919.764C376.163 964.28 478.319 1006.32 610.504 1011.93C807.3 1020.29 1001.72 949.202 1173.23 886.534C1207.61 873.96 1239.96 862.155 1272.04 851.249C1370.27 817.236 1449.46 779.391 1526.09 742.757C1569.4 721.994 1614.32 700.548 1661.82 680.188C1776.13 631.199 1952.14 563.374 2141.64 518.336C2387.25 459.919 2577.61 489.112 2799.83 533.352C3022.04 577.592 3277.16 623.198 3517.59 618.144C3611.79 616.084 3693.35 605.454 3779.68 594.248C3844.42 585.208 3909.75 578.062 3975.38 572.84C4085.65 564.943 4205.77 571.854 4321.93 578.526C4399.16 583.779 4477.17 586.77 4555.64 587.484C4752.56 586.815 4897.49 563.557 5054.27 507.238C5246.52 438.34 5509.56 326.43 5579.58 275.919L5613.73 289.18C5539.61 342.468 5276.06 454.938 5076.3 526.576C4910.95 585.875 4759.07 610.072 4552.2 610.973C4472.3 610.327 4392.86 607.322 4314.23 601.97C4200.48 595.451 4083 588.68 3977.85 596.217C3913.72 601.269 3849.87 608.19 3786.59 616.951C3701.99 627.819 3614.48 639.39 3515.9 641.529C3267.62 646.987 3006.94 599.879 2782.08 555.382C2568.4 512.999 2386.75 484.886 2156.46 539.631C1971.49 583.577 1799.12 650.069 1687.16 698.035C1640.62 717.985 1596.24 739.164 1553.34 759.666C1475.33 796.971 1394.76 835.546 1293.32 870.691C1261.79 881.623 1229.65 893.357 1195.59 905.912C1042.52 961.896 871.864 1024.1 691.938 1034.68Z" fill="#725C94"/>
<path d="M724.19 1034.2C694.001 1035.98 663.788 1036.22 633.957 1034.9C488.471 1028.25 376.711 981.05 268.541 935.353C201.221 907.004 131.982 877.648 55.4673 858.565C-174.402 801.334 -489.635 849.989 -632.781 965.049L-668.402 952.877C-513.132 828.143 -172.228 775.031 76.1905 836.949C156.812 857.029 228.056 886.974 297.074 916.285C405.357 962.034 507.581 1005.25 640.996 1011.32C843.092 1020.49 1041.21 945.289 1216 878.951C1237.4 870.736 1258.81 862.639 1280.24 854.894C1377.37 818.824 1455.18 778.112 1530.45 738.787C1572.28 716.874 1615.37 694.297 1661.38 672.787C1773.31 620.46 1946.7 548.956 2137.5 505.552C2385.86 449.155 2581.37 484.058 2811.55 535.493L2848.37 543.764C3047.96 588.567 3296.9 644.382 3531.57 625.046C3606.14 618.241 3680.21 608.984 3753.38 597.327C3831.49 584.787 3910.71 575.166 3990.45 568.536C4109.21 559.845 4238.31 566.935 4362.8 573.825C4435.14 577.826 4503.53 581.587 4570 582.455C4776.76 585.275 4923.35 565.988 5075.89 515.813C5265.03 453.582 5516.42 344.421 5574.55 287.18L5612.46 297.332C5549.67 359.091 5294.37 470.487 5096.43 535.769C4935.41 588.683 4781.77 609.092 4565.6 606.118C4497.48 605.17 4425.13 601.17 4355.1 597.328C4232.8 590.604 4106.45 583.706 3992.7 591.984C3914.92 598.437 3837.66 607.845 3761.5 620.136C3686.66 632.061 3610.87 641.517 3534.58 648.449C3288.27 668.824 3033.56 611.58 2829.41 565.688L2791.73 557.528C2570.85 508.139 2383.41 474.59 2151.15 527.388C1966.06 569.395 1796.62 639.192 1687.9 690.21C1643.07 711.18 1600.28 733.562 1558.99 755.208C1482.22 795.093 1402.93 836.776 1302.49 874.102C1281.86 881.8 1260.74 889.762 1239.12 897.99C1083.06 957.214 908.914 1023.34 724.19 1034.2Z" fill="#6D5590"/>
<path d="M754.349 1033.49C724.185 1035.29 693.995 1035.48 664.218 1034.07C517.501 1026.95 405.56 978.529 297.096 931.552C229.727 902.381 160.221 872.215 83.233 852.511C-148.063 793.359 -468.445 841.905 -616.207 958.475L-651.621 946.113C-491.516 819.857 -145.34 767.083 104.287 830.935C185.386 851.694 256.907 882.626 325.963 912.582C434.301 959.271 536.721 1003.95 670.913 1010.21C880.947 1020.38 1093.29 935.861 1262.85 868.002L1286.9 858.394C1383.14 820.195 1459.04 776.765 1532.84 734.697C1573.28 711.627 1615.1 687.828 1660.06 665.142C1819.43 584.087 1978.18 526.059 2132.36 492.59C2403.77 433.718 2635.62 491.186 2822.06 537.41L2834.16 540.354C3041.36 591.666 3299.41 655.553 3546.07 631.621C3621.8 623.469 3696.75 612.325 3770.29 598.279C3846.66 583.654 3924.57 572.214 4003.32 564.065C4133.92 552.143 4274.59 560.499 4410.75 568.589C4470.92 572.126 4527.69 575.51 4583.49 577.241C4766.23 582.888 4923.39 576.007 5096.4 524.157C5283.18 468.138 5524.97 359.6 5568.95 298.12L5609.42 305.174C5560.48 373.665 5309.74 486.325 5115.22 544.627C4920.71 602.929 4742.52 605.917 4577.65 600.87C4520.76 599.086 4460.8 595.536 4402.72 592.112C4269.52 584.142 4131.82 575.965 4007.31 587.352C3927.32 594.708 3856.17 607.32 3780.91 620.705C3705.34 635.131 3628.33 646.555 3550.5 654.883C3290.35 680.079 3026.08 614.613 2813.55 562.022L2801.45 559.02C2573.7 502.607 2380.9 463.477 2145.79 514.438C1997.23 546.752 1843.4 602.957 1688.61 681.797C1645.16 703.924 1603.76 727.463 1563.95 750.2C1488.67 793.122 1410.85 837.489 1311.53 877.049L1287.47 886.599C1134.49 948.001 948.996 1022.04 754.349 1033.49Z" fill="#674F8B"/>
<path d="M787.356 1032.84C756.264 1034.69 725.148 1034.84 694.483 1033.29C546.528 1025.6 434.511 975.883 326.196 927.719C258.779 897.725 188.898 866.756 111.435 846.431C-121.28 785.477 -446.709 833.788 -599.299 951.998L-634.396 939.441C-469.446 811.839 -118.114 759.293 132.827 825.012C214.512 846.444 286.085 878.257 355.404 908.965C463.831 957.181 566.409 1002.68 701.962 1009.74C906.107 1020.26 1107.05 942.775 1295.13 862.449C1389.39 822.244 1464.13 775.876 1536.36 731.307C1575.53 707.073 1615.97 682.058 1659.21 658.234C1814.8 572.45 1972.45 512.365 2127.59 480.313C2403.37 423.247 2641.56 488.006 2833.05 540.007C3031.42 593.842 3303.19 667.593 3561.04 638.7C3641.27 629.798 3715.21 614.486 3786.67 599.674C3858.13 584.862 3934.46 569.115 4016.76 560.091C4159.4 544.396 4311.88 554.534 4459.95 564.223C4507.51 567.322 4552.56 570.569 4597.1 572.49C4787.82 581.677 4949.25 578.437 5117.16 532.959C5302.42 482.747 5532.86 376.527 5563.6 309.459L5605.86 313.519C5570.71 389.394 5328.89 501.117 5133.94 553.962C4956.33 602.073 4787.91 605.606 4589.3 596.118C4543.98 593.889 4496.63 590.776 4450.72 587.757C4306.37 578.203 4157.2 568.343 4021.64 583.503C3943.03 592.133 3872.98 606.627 3798.81 621.951C3724.65 637.276 3649.95 652.809 3566.03 662.106C3546.89 664.232 3527.73 665.831 3508.64 666.952C3254.68 681.882 3000.04 612.783 2810.44 561.32C2584.38 499.916 2377.99 453.037 2139.5 502.369C1990.74 533.103 1838.97 590.778 1688.27 674.153C1645.87 697.456 1606.07 722.197 1567.43 746.105C1493.51 791.717 1417.4 838.932 1319.51 880.648C1152.47 952.308 974.152 1021.86 787.356 1032.84Z" fill="#624887"/>
<path d="M817.188 1032.15C786.228 1034.02 755.242 1034.12 724.744 1032.46C575.664 1024.24 463.462 973.239 355.078 923.9C287.616 893.142 217.352 861.252 139.419 840.366C-94.6127 777.484 -425.297 825.751 -582.615 945.417L-617.502 932.73C-447.615 803.482 -91.1126 751.398 161.145 819.045C243.305 841.098 315.147 873.779 384.518 905.368C493.232 954.746 595.77 1001.42 732.43 1008.72C937.183 1020.26 1144.98 938.365 1303.11 865.99C1395.6 823.707 1468.77 774.72 1539.52 727.408C1577.53 701.946 1616.8 675.703 1658.77 650.657C1810.77 559.777 1967.13 498.118 2123.22 467.365C2382.83 416.261 2603.46 470.91 2844.21 542.004C3079.61 611.349 3329.86 676.519 3576.54 645.571C3656.93 635.54 3731.18 617.97 3803.05 600.952C3874.93 583.934 3949.29 566.416 4030.74 555.91C4185.93 535.94 4351.01 548.343 4510.71 560.355C4545.44 562.971 4578.31 565.461 4611.26 567.65C4778.66 578.561 4957.22 585.633 5138.36 541.677C5321.76 497.116 5541.49 392.999 5559.76 320.474L5603.07 321.878C5582.01 404.883 5349.33 515.657 5153.62 563.122C4961.7 609.776 4776.24 602.462 4602.79 591.081C4569.84 588.891 4534.89 586.288 4501.47 583.772C4345.73 572.058 4184.72 560.005 4037.67 578.907C3960.24 588.882 3891.06 605.211 3817.78 622.547C3744.5 639.883 3667.77 658.012 3583.26 668.58C3559.54 671.55 3535.63 673.743 3511.64 675.148C3274.79 689.071 3041.3 627.868 2821.15 562.932C2589.31 494.557 2377.75 441.615 2135.24 489.532C1986.51 518.85 1836.67 577.826 1689.97 665.801C1649.06 690.254 1610.21 716.237 1572.62 741.379C1500.4 789.662 1425.21 839.653 1329.31 883.609C1187.51 948.894 1006.17 1021.04 817.188 1032.15Z" fill="#5C4283"/>
<path d="M847.783 1031.41C816.698 1033.27 785.592 1033.32 755.001 1031.56C605.008 1022.69 492.966 970.679 384.625 920.217C316.563 888.552 246.25 855.839 167.403 834.299C-67.7276 769.478 -403.469 817.334 -565.824 938.83L-600.498 926.012C-425.467 794.928 -64.1254 743.268 189.459 813.017C272.533 835.724 344.649 869.333 414.511 901.836C522.964 952.35 625.455 1000.09 762.923 1008.1C921.143 1017.31 1105.53 970.868 1310.88 869.777C1401.49 825.247 1473.08 773.641 1542.26 723.709C1579.21 697.071 1617.42 669.535 1657.9 643.338C1806.44 547.533 1961.37 484.012 2118.42 454.677C2405.02 401.043 2665.06 483.796 2855.07 544.195C3078.08 615.152 3337.86 687.898 3591.61 652.467C3672.03 641.254 3746.48 621.432 3818.45 602.228C3890.41 583.023 3963.35 563.644 4044.17 551.76C4212.54 526.947 4390.27 542.38 4562.18 557.329L4624.98 562.717C4812.79 578.323 4982.76 588.199 5159.22 550.295C5341.63 511.216 5549.89 409.424 5555.48 331.278L5599.19 330.418C5592.66 420.351 5369.21 530.051 5172.65 572.202C4985.81 612.249 4802.34 601.634 4615.41 586.094C4594.66 584.366 4573.66 582.555 4552.39 580.661C4385 566.153 4211.44 551.123 4052.85 574.654C3976.92 585.897 3908.06 604.093 3835.56 623.388C3763.05 642.684 3684.73 663.559 3599.75 675.452C3329.94 713.125 3061.38 638.124 2831.22 564.874C2593.94 489.45 2377.33 430.791 2130.02 477.046C1981.31 504.888 1833.55 565.688 1690.7 657.799C1650.86 683.722 1613.06 710.704 1576.63 737.016C1505.99 787.977 1432.93 840.673 1338.9 886.583C1160.99 974.328 996.304 1022.68 847.783 1031.41Z" fill="#573B7F"/>
<path d="M879.482 1030.85C847.905 1032.75 816.306 1032.74 785.269 1030.84C634.042 1021.46 521.811 968.099 413.292 916.468C345.188 884.098 274.712 850.452 195.376 828.056C-41.1698 761.491 -382.078 808.943 -549.147 932.131L-583.505 919.117C-403.629 786.688 -36.2555 735.262 217.767 806.873C301.205 830.206 373.588 864.625 443.498 897.95C552.242 949.685 654.907 998.535 793.392 1007.08C1005.57 1020.19 1213.6 929.319 1318.65 873.565C1407.07 827.1 1476.86 772.652 1544.89 720.076C1580.79 692.262 1618.16 663.478 1657.47 635.994C1802.55 535.322 1956.18 470.051 2113.96 442.029C2384.69 393.985 2624.17 463.974 2866.25 546.368C3088.43 621.736 3347.29 699.37 3607.12 659.395C3687.47 647.008 3762.01 624.941 3833.63 603.576C3905.25 582.21 3977.31 560.995 4057.61 547.668C4239.88 517.44 4439.24 537.674 4615.03 555.519L4638.48 557.914C4805.25 574.699 4994.14 593.779 5179.98 559.097C5360.94 525.29 5558.15 425.268 5551.29 342.018L5594.91 339.454C5602.9 436.256 5388.13 544.797 5191.37 581.654C4994.61 618.512 4799.33 598.804 4627.39 581.44L4603.83 579.051C4424.52 560.882 4239.14 542.067 4067.16 570.57C3991.3 583.106 3920.54 604.126 3852.03 624.483C3777.61 646.544 3700.71 669.339 3614.72 682.53C3337.75 725.104 3069.57 645.306 2839.78 567.142C2606.42 487.656 2375.94 420.026 2123.51 464.872C1974.82 491.298 1828.9 553.582 1689.92 650.063C1651.12 676.986 1614.39 705.438 1578.82 733.232C1509.86 786.807 1438.37 842.121 1346.68 890.547C1252.03 940.797 1074.46 1019.38 879.482 1030.85Z" fill="#51357A"/>
<path d="M912.494 1030.26C879.944 1032.22 847.374 1032.15 815.425 1030.07C663.069 1020.1 550.762 965.453 442.065 912.654C373.8 879.408 303.064 845.07 223.378 822.282C-14.5807 754.031 -360.631 801.492 -532.348 925.659L-566.607 912.463C-476.452 847.15 -341.491 799.482 -186.709 778.121C-31.9279 756.761 121.531 765.013 245.965 800.734C329.991 824.74 402.639 859.968 472.595 894.057C581.408 946.968 684.251 996.986 823.977 1006.16C1046.97 1020.82 1249.66 920.95 1326.42 877.293C1412.51 828.43 1481.05 771.461 1547.41 716.39C1582.36 687.335 1618.45 657.269 1657.03 628.532C1798.44 523.006 1950.64 455.99 2109.38 429.268C2385.78 382.719 2640.31 462.907 2877.1 548.5C3113.88 634.093 3369.94 708.649 3622.4 666.219C3702.69 652.715 3773.43 629.456 3849.34 604.773C3919.56 581.839 3992.03 558.184 4071.81 543.472C4268.38 507.157 4481.61 532.529 4652.85 552.883L4656.16 553.278C4835.11 574.593 5019.81 596.749 5201.6 567.67C5381.12 539.077 5567.39 440.936 5548.07 352.405L5591.57 347.843C5614.18 451.391 5409.21 559.002 5211.03 590.284C5018.71 620.984 4828.52 598.267 4643.84 576.463L4640.54 576.068C4474.48 556.353 4267.86 531.771 4083.08 565.801C4008.17 579.637 3937.85 602.636 3869.89 624.847C3794.73 649.25 3718.19 674.383 3632.92 688.769C3363.12 734.105 3097.98 657.724 2851.68 568.505C2623.04 485.616 2378.2 408.337 2120 451.812C1971.35 476.822 1827.49 540.635 1692.26 641.494C1654.52 669.651 1619.07 699.385 1583.99 728.211C1516.49 784.293 1446.71 842.396 1357.54 892.913C1286.28 933.476 1114.99 1018.36 912.494 1030.26Z" fill="#4C2E76"/>
<path d="M942.875 1029.59C910.287 1031.6 877.67 1031.54 845.696 1029.41C691.875 1018.7 579.171 962.899 470.841 908.899C402.426 874.955 331.533 839.801 251.369 816.334C11.889 746.403 -339.318 793.636 -515.641 919.49L-549.256 906.079C-456.839 840.161 -319.696 792.365 -163.252 771.378C-6.80673 750.391 148.857 758.926 274.332 795.588C358.825 820.098 431.096 856.35 501.75 891.165C610.741 945.244 713.773 996.607 854.497 1006.02C1010.19 1016.85 1189.65 970.461 1334.35 881.838C1417.79 830.714 1484.86 771.12 1549.75 713.481C1583.86 683.179 1619.12 651.866 1656.53 621.9C1796.35 509.924 1943.1 442.993 2104.84 417.273C2387.9 372.219 2657.48 462.899 2888.1 551.39C3125.66 642.598 3380.82 720.567 3637.73 673.807C3717.95 659.188 3789.11 633.723 3864.56 606.767C3934.22 581.862 4006.24 556.111 4085.61 540.008C4278.2 500.921 4486.58 523.984 4666.83 548.701L4688.23 551.687C4863.52 575.753 5044.77 600.706 5222.84 577.092C5331.7 562.218 5428.96 525.517 5494.31 474.65C5539.33 438.224 5556.66 399.77 5544.46 363.465L5587.33 357.525C5601.76 400.067 5581.51 444.764 5530.03 486.699C5457.85 542.887 5350.51 583.482 5230.31 600.057C5041.38 625.017 4855.06 599.418 4674.81 574.584L4652.75 571.695C4470.86 547.015 4278 525.457 4097.74 562.11C4023.46 577.206 3953.69 602.118 3886.28 626.242C3811.25 652.937 3734.42 680.504 3648.35 696.175C3373.03 746.316 3107.1 665.678 2860.69 571.041C2627.84 481.621 2378.24 397.783 2113.83 439.913C1963.15 463.922 1825.08 527.63 1691.82 634.092C1654.93 663.556 1619.99 694.614 1586.19 724.663C1520.15 783.253 1451.93 843.858 1365.65 896.8C1239.42 973.843 1087.25 1021.11 942.875 1029.59Z" fill="#462872"/>
</g>
<defs>
<clipPath id="clip0_1664_222">
<rect width="6823" height="749" fill="white" transform="translate(-1118 400.389) rotate(-3.36418)"/>
</clipPath>
</defs>
</svg>
